<?xml version="1.0" encoding="UTF-8"?>
<svg xmlns="http://www.w3.org/2000/svg" xmlns:xlink="http://www.w3.org/1999/xlink" width="375pt" height="374.999991pt" viewBox="0 0 375 374.999991" version="1.2">
<defs>
<clipPath id="clip1">
  <path d="M 77.636719 77.636719 L 297.386719 77.636719 L 297.386719 297.386719 L 77.636719 297.386719 Z M 77.636719 77.636719 "/>
</clipPath>
<clipPath id="clip2">
  <path d="M 195 194.414062 L 200 194.414062 L 200 200 L 195 200 Z M 195 194.414062 "/>
</clipPath>
<clipPath id="clip3">
  <path d="M 180.652344 208 L 186 208 L 186 214 L 180.652344 214 Z M 180.652344 208 "/>
</clipPath>
<clipPath id="clip4">
  <path d="M 195 223 L 200 223 L 200 227.414062 L 195 227.414062 Z M 195 223 "/>
</clipPath>
<clipPath id="clip5">
  <path d="M 209 208 L 213.652344 208 L 213.652344 214 L 209 214 Z M 209 208 "/>
</clipPath>
<filter id="alpha" filterUnits="objectBoundingBox" x="0%" y="0%" width="100%" height="100%">
  <feColorMatrix type="matrix" in="SourceGraphic" values="0 0 0 0 1 0 0 0 0 1 0 0 0 0 1 0 0 0 1 0"/>
</filter>
<mask id="mask0">
  <g filter="url(#alpha)">
<rect x="0" y="0" width="375" height="374.999991" style="fill:rgb(0%,0%,0%);fill-opacity:0.2196;stroke:none;"/>
  </g>
</mask>
<clipPath id="clip7">
  <path d="M 0.328125 0.328125 L 202.828125 0.328125 L 202.828125 202.828125 L 0.328125 202.828125 Z M 0.328125 0.328125 "/>
</clipPath>
<clipPath id="clip6">
  <rect x="0" y="0" width="203" height="203"/>
</clipPath>
<g id="surface5" clip-path="url(#clip6)">
<g clip-path="url(#clip7)" clip-rule="nonzero">
<path style=" stroke:none;fill-rule:nonzero;fill:rgb(15.289307%,30.589294%,36.079407%);fill-opacity:1;" d="M 202.996094 101.640625 C 202.996094 157.609375 157.625 202.980469 101.65625 202.980469 C 45.6875 202.980469 0.316406 157.609375 0.316406 101.640625 C 0.316406 45.671875 45.6875 0.300781 101.65625 0.300781 C 157.625 0.300781 202.996094 45.671875 202.996094 101.640625 "/>
</g>
<path style=" stroke:none;fill-rule:nonzero;fill:rgb(38.038635%,79.60968%,89.019775%);fill-opacity:1;" d="M 74.0625 27.957031 C 74.0625 27.957031 76.488281 27.957031 77.964844 28.964844 C 79.441406 29.96875 80.328125 29.96875 80.917969 31.445312 C 81.507812 32.921875 81.507812 32.628906 81.6875 33.21875 C 81.863281 33.808594 81.6875 34.929688 81.039062 35.757812 C 80.386719 36.585938 79.203125 37.828125 78.96875 38.003906 C 78.730469 38.183594 78.4375 39.304688 78.554688 40.011719 C 78.671875 40.722656 78.316406 42.199219 79.382812 43.382812 C 80.445312 44.566406 80.683594 44.800781 81.390625 44.800781 C 82.097656 44.800781 83.875 44.152344 85.289062 42.613281 C 86.710938 41.078125 84.761719 40.605469 87.300781 40.132812 C 89.839844 39.660156 90.078125 39.957031 91.378906 39.070312 C 92.675781 38.183594 92.855469 37.828125 94.214844 37.238281 C 95.570312 36.644531 95.394531 36.644531 96.105469 36.46875 C 96.8125 36.292969 96.636719 36.410156 97.582031 36.175781 C 98.523438 35.9375 100.121094 35.40625 100.714844 35.34375 C 101.304688 35.285156 102.25 34.816406 102.605469 34.992188 C 102.960938 35.167969 103.015625 34.574219 102.605469 34.574219 C 102.191406 34.574219 102.191406 33.394531 102.015625 33.394531 C 101.835938 33.394531 101.601562 33.636719 101.601562 33.21875 C 101.601562 32.804688 101.363281 32.15625 102.425781 33.042969 C 103.492188 33.929688 102.425781 34.339844 103.847656 34.046875 C 105.261719 33.75 106.269531 33.929688 105.738281 33.574219 C 105.207031 33.21875 103.492188 32.335938 103.253906 32.214844 C 103.015625 32.097656 102.308594 31.503906 103.492188 31.148438 C 104.671875 30.796875 103.550781 31.683594 105.5 30.441406 C 107.449219 29.199219 108.15625 29.378906 108.511719 28.492188 C 108.867188 27.605469 109.164062 26.601562 109.105469 26.304688 C 109.046875 26.007812 108.691406 26.1875 109.8125 25.59375 C 110.9375 25.003906 110.226562 24.945312 111.941406 24.769531 C 113.652344 24.59375 117.316406 24.710938 113.476562 24.058594 C 109.636719 23.410156 109.753906 23.527344 108.277344 23.171875 C 106.800781 22.820312 106.269531 22.585938 105.382812 22.703125 C 104.496094 22.820312 100.890625 23.351562 98.707031 23.644531 C 96.519531 23.941406 99.589844 25.238281 92.441406 24.472656 C 85.289062 23.703125 87.652344 23.585938 84.050781 24.472656 C 80.445312 25.359375 82.398438 25.65625 78.96875 26.25 C 75.542969 26.835938 75.363281 26.777344 74.890625 27.015625 C 74.417969 27.25 70.753906 26.007812 74.0625 27.957031 "/>
<path style=" stroke:none;fill-rule:nonzero;fill:rgb(38.038635%,79.60968%,89.019775%);fill-opacity:1;" d="M 61.476562 39.128906 C 61.8125 38.886719 63.839844 38.59375 64.371094 38.535156 C 64.90625 38.480469 65.496094 37.828125 64.550781 37.179688 C 63.605469 36.53125 63.722656 36.46875 62.835938 35.996094 C 61.949219 35.523438 63.722656 35.820312 61.535156 35.167969 C 59.347656 34.519531 59.175781 34.640625 58.996094 34.640625 C 58.820312 34.640625 57.8125 34.402344 57.28125 34.339844 C 56.75 34.285156 56.808594 34.402344 55.6875 34.105469 C 54.566406 33.808594 51.832031 34.371094 52.125 32.894531 C 52.421875 31.417969 52.851562 31.800781 53.972656 31.566406 C 55.09375 31.328125 57.339844 31.625 57.339844 30.914062 C 57.339844 30.207031 57.226562 30.089844 56.929688 29.789062 C 56.632812 29.496094 55.570312 29.851562 56.160156 29.144531 C 56.75 28.433594 57.28125 28.078125 58.285156 28.253906 C 59.292969 28.433594 59.882812 29.023438 60.355469 29.023438 C 60.828125 29.023438 62.007812 29.023438 62.1875 29.023438 C 62.363281 29.023438 63.070312 28.375 63.070312 29.082031 C 63.070312 29.789062 61.832031 30.265625 61.0625 30.265625 C 60.296875 30.265625 60 30.207031 60 30.382812 C 60 30.558594 59.46875 31.625 60.355469 31.625 C 61.242188 31.625 62.835938 31.917969 64.019531 32.507812 C 65.199219 33.101562 68.097656 33.808594 68.332031 33.808594 C 68.570312 33.808594 68.746094 34.222656 68.390625 35.34375 C 68.039062 36.46875 68.273438 37.828125 69.15625 37.945312 C 70.046875 38.066406 70.695312 37.652344 70.28125 38.300781 C 69.867188 38.949219 70.519531 38.949219 69.21875 39.304688 C 67.917969 39.660156 67.328125 39.957031 66.738281 40.011719 C 66.144531 40.070312 64.726562 40.605469 64.609375 40.960938 C 64.492188 41.316406 65.023438 41.609375 64.492188 41.964844 C 63.960938 42.320312 63.488281 42.671875 62.957031 42.496094 C 62.421875 42.320312 61.65625 42.730469 60.886719 41.90625 C 60.117188 41.078125 60.175781 40.070312 61.476562 39.128906 "/>
<path style=" stroke:none;fill-rule:nonzero;fill:rgb(38.038635%,79.60968%,89.019775%);fill-opacity:1;" d="M 61.253906 26.910156 C 61.253906 26.910156 64.847656 26.070312 64.980469 25.890625 C 65.113281 25.714844 65.023438 25.449219 65.332031 25.003906 C 65.644531 24.5625 66.394531 24.074219 66.664062 24.074219 C 66.929688 24.074219 67.683594 24.074219 68.082031 23.941406 C 68.480469 23.808594 67.019531 23.675781 69.234375 23.585938 C 71.449219 23.496094 70.917969 23.941406 72.203125 23.496094 C 73.488281 23.054688 74.019531 22.875 74.464844 22.746094 C 74.90625 22.613281 75.394531 22.523438 76.191406 22.523438 C 76.988281 22.523438 78.230469 22.613281 78.453125 22.613281 C 78.671875 22.613281 79.605469 22.035156 80.09375 22.390625 C 80.578125 22.746094 80.933594 22.347656 80.578125 22.746094 C 80.226562 23.144531 78.140625 24.207031 77.476562 24.429688 C 76.8125 24.648438 74.550781 25.496094 74.285156 25.496094 C 74.019531 25.496094 71.226562 25.980469 70.519531 26.203125 C 69.808594 26.421875 68.300781 27.308594 68.082031 27.574219 C 67.859375 27.84375 66.839844 28.195312 66.351562 28.460938 C 65.867188 28.726562 64.886719 29.304688 64.535156 29.039062 C 64.179688 28.773438 64.136719 28.195312 63.605469 27.929688 C 63.070312 27.664062 60.8125 27.664062 60.8125 27.664062 C 60.8125 27.664062 60.414062 27 61.253906 26.910156 "/>
<path style=" stroke:none;fill-rule:nonzero;fill:rgb(38.038635%,79.60968%,89.019775%);fill-opacity:1;" d="M 66.972656 55.496094 C 66.972656 55.496094 65.15625 57.402344 64.933594 57.488281 C 64.710938 57.578125 64.046875 57.84375 64.046875 57.84375 C 64.046875 57.84375 63.828125 58.285156 63.78125 58.464844 C 63.738281 58.644531 63.425781 58.507812 63.738281 58.644531 C 64.046875 58.777344 64.710938 58.953125 65.46875 58.953125 C 66.21875 58.953125 67.726562 58.996094 67.726562 58.996094 C 67.726562 58.996094 67.726562 59.527344 68.34375 58.90625 C 68.964844 58.285156 69.234375 58.285156 69.144531 57.980469 C 69.054688 57.667969 68.921875 57.136719 68.4375 56.871094 C 67.949219 56.605469 67.726562 56.425781 67.503906 56.382812 C 67.285156 56.335938 67.238281 56.472656 67.238281 56.117188 C 67.238281 55.761719 69.722656 55.273438 66.972656 55.496094 "/>
<path style=" stroke:none;fill-rule:nonzero;fill:rgb(38.038635%,79.60968%,89.019775%);fill-opacity:1;" d="M 103.625 39.539062 C 103.625 39.539062 105.972656 39.1875 106.328125 39.097656 C 106.683594 39.007812 107.082031 39.054688 107.65625 38.742188 C 108.230469 38.433594 108.277344 38.210938 108.984375 38.300781 C 109.695312 38.386719 110.007812 38.699219 110.007812 38.921875 C 110.007812 39.144531 110.359375 39.277344 109.917969 39.761719 C 109.476562 40.25 108.675781 40.695312 108.277344 40.867188 C 107.878906 41.050781 107.835938 41.222656 107.433594 41.316406 C 107.039062 41.402344 106.769531 41.539062 106.238281 41.625 C 105.707031 41.710938 105.394531 41.890625 104.6875 41.269531 C 103.976562 40.652344 104.863281 40.78125 103.976562 40.652344 C 103.089844 40.515625 102.382812 40.070312 103.625 39.539062 "/>
<path style=" stroke:none;fill-rule:nonzero;fill:rgb(38.038635%,79.60968%,89.019775%);fill-opacity:1;" d="M 116.875 55.628906 C 116.875 55.628906 118.824219 55.140625 118.203125 54.519531 C 117.585938 53.902344 117.140625 54.253906 117.097656 53.8125 C 117.050781 53.367188 117.40625 52.394531 117.539062 52.394531 C 117.671875 52.394531 118.070312 52.039062 118.070312 52.039062 C 118.070312 52.039062 118.648438 52.261719 118.070312 51.597656 C 117.492188 50.929688 116.519531 50.621094 116.386719 50.621094 C 116.253906 50.621094 116.296875 50.796875 115.632812 51.289062 C 114.96875 51.773438 115.191406 51.464844 114.878906 51.550781 C 114.570312 51.640625 114.570312 52.617188 114.613281 52.96875 C 114.65625 53.324219 115.589844 53.324219 114.65625 53.722656 C 113.726562 54.121094 113.152344 54.296875 112.929688 54.347656 C 112.707031 54.386719 111.554688 54.828125 111.554688 54.828125 C 111.554688 54.828125 111.601562 54.566406 111.820312 53.722656 C 112.042969 52.878906 112.265625 52.878906 112.175781 52.261719 C 112.089844 51.640625 111.425781 51.683594 112.042969 51.152344 C 112.664062 50.621094 112.664062 50.445312 113.242188 50.355469 C 113.816406 50.265625 114.835938 50.265625 114.835938 50.265625 C 114.835938 50.265625 115.457031 50.222656 115.855469 50.136719 C 116.253906 50.042969 116.476562 50.136719 116.519531 49.734375 C 116.5625 49.335938 116.5625 48.628906 116.5625 48.628906 C 116.5625 48.628906 116.964844 47.476562 117.273438 47.339844 C 117.585938 47.207031 117.625 47.078125 118.070312 47.207031 C 118.511719 47.339844 118.648438 47.695312 118.738281 47.828125 C 118.824219 47.960938 119.179688 47.652344 118.78125 48.273438 C 118.382812 48.890625 118.070312 49.070312 118.867188 49.601562 C 119.664062 50.136719 119.796875 50.179688 119.890625 50.398438 C 119.976562 50.621094 120.863281 52.835938 121.085938 52.878906 C 121.304688 52.925781 120.863281 52.214844 121.707031 52.925781 C 122.546875 53.632812 122.8125 53.589844 122.414062 53.988281 C 122.015625 54.386719 122.058594 54.386719 121.527344 54.699219 C 120.996094 55.011719 121.75 54.789062 120.152344 55.496094 C 118.558594 56.207031 118.511719 56.117188 117.980469 56.296875 "/>
<path style=" stroke:none;fill-rule:nonzero;fill:rgb(38.038635%,79.60968%,89.019775%);fill-opacity:1;" d="M 165.710938 142.269531 C 165.710938 142.269531 166.601562 140.582031 166.910156 140.144531 C 167.222656 139.699219 167.484375 139.964844 167.484375 139.257812 C 167.484375 138.546875 167.53125 137.972656 167.308594 137.394531 C 167.085938 136.820312 166.953125 136.328125 167.261719 136.199219 C 167.574219 136.066406 168.371094 134.605469 168.371094 134.605469 C 168.371094 134.605469 169.214844 134.738281 169.480469 134.605469 C 169.746094 134.46875 170.277344 133.273438 170.542969 133.050781 C 170.808594 132.832031 170.988281 132.875 171.652344 132.078125 C 172.316406 131.28125 172.804688 131.457031 172.980469 130.746094 C 173.160156 130.039062 172.933594 128.839844 173.160156 130.039062 C 173.378906 131.234375 173.691406 132.121094 173.734375 132.390625 C 173.777344 132.652344 173.957031 133.363281 173.957031 134.203125 C 173.957031 135.046875 173.867188 135.664062 173.554688 136.289062 C 173.246094 136.910156 173.203125 137.261719 172.980469 138.0625 C 172.757812 138.855469 172.757812 138.902344 172.316406 140.675781 C 171.871094 142.449219 169.789062 145.769531 169.746094 145.902344 C 169.703125 146.039062 169.964844 146.082031 168.816406 145.816406 C 167.664062 145.550781 167.261719 145.769531 166.996094 145.105469 C 166.734375 144.441406 164.824219 143.734375 165.710938 142.269531 "/>
<path style=" stroke:none;fill-rule:nonzero;fill:rgb(38.038635%,79.60968%,89.019775%);fill-opacity:1;" d="M 170.679688 35.515625 C 169.742188 35.488281 168.851562 35.527344 168.726562 35.550781 C 168.503906 35.597656 169.257812 35.640625 167.839844 36.039062 C 166.421875 36.4375 164.253906 36.707031 164.253906 36.707031 C 164.253906 36.707031 163.320312 36.082031 162.257812 36.664062 C 161.191406 37.238281 160.394531 37.8125 159.953125 37.722656 C 159.507812 37.636719 159.109375 37.503906 159.109375 37.324219 C 159.109375 37.148438 159.996094 36.664062 159.152344 36.664062 C 158.3125 36.664062 158.3125 36.53125 158.179688 36.839844 C 158.046875 37.148438 157.421875 38.386719 156.359375 38.699219 C 155.296875 39.007812 155.164062 38.65625 154.898438 39.054688 C 154.632812 39.453125 154.769531 40.070312 154.320312 40.339844 C 153.878906 40.605469 153.390625 41.222656 152.550781 40.867188 C 151.707031 40.515625 152.242188 41.007812 151.089844 39.898438 C 149.933594 38.789062 148.917969 37.859375 149.09375 37.503906 C 149.273438 37.148438 150.777344 37.542969 151.488281 37.722656 C 152.195312 37.902344 153.65625 38.039062 153.835938 37.902344 C 154.011719 37.769531 154.769531 37.59375 154.769531 37.238281 C 154.769531 36.882812 148.429688 35.242188 147.585938 34.929688 C 146.746094 34.621094 145.726562 34.179688 144.484375 34.132812 C 143.242188 34.089844 141.867188 34.179688 140.1875 34.488281 C 138.503906 34.800781 138.015625 35.019531 138.015625 35.019531 C 138.015625 35.019531 135.664062 35.953125 135.042969 36.351562 C 134.421875 36.75 134.027344 37.542969 133.804688 37.679688 C 133.582031 37.8125 133.496094 38.210938 133.007812 38.386719 C 132.519531 38.566406 131.898438 39.097656 131.410156 39.71875 C 130.921875 40.339844 129.59375 41.710938 129.328125 41.933594 C 129.0625 42.15625 127.554688 42.511719 127.113281 42.730469 C 126.667969 42.953125 126.046875 43.085938 125.914062 43.484375 C 125.78125 43.882812 126.3125 46.457031 126.402344 46.765625 C 126.492188 47.078125 126.9375 46.71875 127.910156 46.808594 C 128.886719 46.898438 130.214844 46.898438 130.390625 46.71875 C 130.570312 46.542969 130.835938 46.234375 131.097656 46.410156 C 131.367188 46.589844 131.808594 47.515625 131.988281 47.828125 C 132.164062 48.136719 132.117188 48.980469 133.140625 48.804688 C 134.160156 48.628906 134.734375 48.449219 135.042969 48.09375 C 135.355469 47.738281 134.957031 48.136719 135.710938 46.808594 C 136.464844 45.480469 135.84375 47.296875 136.726562 44.59375 C 137.613281 41.890625 136.683594 43.085938 137.613281 41.890625 C 138.546875 40.695312 138.8125 40.207031 139.03125 39.984375 C 139.253906 39.761719 140.011719 39.144531 140.539062 38.789062 C 141.074219 38.433594 142.492188 37.902344 142.136719 39.144531 C 141.78125 40.386719 141.472656 40.515625 141.25 40.867188 C 141.023438 41.222656 140.320312 41.710938 140.628906 42.46875 C 140.9375 43.21875 141.558594 43.664062 141.734375 43.664062 C 141.914062 43.664062 142.84375 44.328125 144.617188 44.019531 C 146.390625 43.707031 146.566406 43.394531 146.566406 43.621094 C 146.566406 43.84375 146.65625 45.210938 146.566406 45.878906 C 146.480469 46.542969 145.058594 48.40625 144.925781 48.628906 C 144.796875 48.847656 144.617188 46.054688 143.289062 46.277344 C 141.960938 46.5 141.160156 47.738281 141.160156 48.09375 C 141.160156 48.449219 141.867188 48.007812 140.761719 48.890625 C 139.65625 49.78125 138.855469 50.265625 138.988281 50.707031 C 139.121094 51.152344 138.945312 51.375 138.101562 51.375 C 137.257812 51.375 135.710938 51.417969 135.132812 51.640625 C 134.558594 51.863281 134.246094 52.039062 132.917969 52.039062 C 131.589844 52.039062 130.921875 51.640625 130.65625 50.796875 C 130.390625 49.957031 130.789062 50.136719 130.300781 49.46875 C 129.816406 48.804688 129.90625 48.136719 129.550781 48.359375 C 129.195312 48.582031 128.972656 48.714844 128.886719 49.203125 C 128.796875 49.691406 128.707031 50.84375 128.484375 51.375 C 128.265625 51.90625 127.332031 52.441406 127.066406 52.480469 C 126.804688 52.527344 125.296875 52.660156 124.496094 53.191406 C 123.699219 53.722656 123.210938 56.027344 122.105469 56.605469 C 120.996094 57.179688 119.308594 57.980469 118.824219 57.84375 C 118.335938 57.710938 116.386719 57.84375 116.210938 58.507812 C 116.03125 59.171875 116.253906 58.820312 117.761719 59.707031 C 119.265625 60.589844 119.578125 61.210938 119.578125 61.210938 C 119.578125 61.210938 120.066406 60.460938 119.445312 62.011719 C 118.824219 63.5625 119.933594 64.050781 118.382812 64.050781 C 116.828125 64.050781 116.253906 64.09375 115.898438 64.09375 C 115.542969 64.09375 114.167969 64.050781 113.683594 64.003906 C 113.195312 63.960938 111.777344 64.933594 111.425781 65.867188 C 111.070312 66.796875 111.070312 67.683594 111.070312 67.992188 C 111.070312 68.304688 110.980469 69.011719 111.199219 69.585938 C 111.425781 70.164062 111.113281 71.140625 112.042969 71.1875 C 112.976562 71.226562 112.53125 71.40625 113.726562 71.316406 C 114.925781 71.226562 115.320312 71.054688 115.632812 71.097656 C 115.945312 71.140625 117.585938 70.960938 118.246094 70.699219 C 118.914062 70.429688 119.890625 69.855469 120.597656 68.921875 C 121.304688 67.992188 120.730469 67.769531 121.660156 66.929688 C 122.589844 66.085938 122.371094 66.222656 122.726562 65.777344 C 123.082031 65.332031 122.859375 65.203125 123.210938 64.933594 C 123.566406 64.667969 123.253906 64.582031 124.363281 64.449219 C 125.472656 64.3125 125.914062 64.492188 126.359375 64.800781 C 126.804688 65.117188 126.667969 63.253906 127.421875 63.03125 C 128.175781 62.808594 128.441406 62.675781 128.796875 62.808594 C 129.148438 62.941406 130.082031 63.207031 130.257812 63.605469 C 130.4375 64.003906 130.480469 64.269531 130.921875 64.625 C 131.367188 64.980469 131.765625 65.246094 131.765625 65.246094 C 131.765625 65.246094 132.164062 65.601562 132.164062 65.734375 C 132.164062 65.867188 132.386719 66.085938 132.875 66.574219 C 133.363281 67.0625 133.496094 68.125 134.203125 68.4375 C 134.910156 68.746094 135.222656 68.878906 135.664062 68.878906 C 136.109375 68.878906 137.039062 68.617188 137.039062 68.617188 C 137.039062 68.617188 137.96875 68.617188 137.21875 67.726562 C 136.464844 66.839844 136.773438 66.839844 135.710938 66.308594 C 134.644531 65.777344 134.289062 65.867188 133.804688 65.332031 C 133.316406 64.800781 133.316406 64.757812 132.785156 64.183594 C 132.25 63.605469 131.722656 63.296875 131.855469 62.765625 C 131.988281 62.230469 132.296875 61.433594 132.472656 61.433594 C 132.652344 61.433594 133.316406 61.390625 133.757812 61.65625 C 134.203125 61.921875 135.3125 63.296875 135.664062 63.695312 C 136.019531 64.09375 137.660156 64.136719 138.238281 64.269531 C 138.8125 64.40625 138.855469 64.714844 139.078125 65.023438 C 139.300781 65.332031 140.230469 66.707031 140.496094 67.0625 C 140.761719 67.417969 140.851562 67.285156 140.851562 67.59375 C 140.851562 67.90625 140.582031 68.4375 140.714844 68.566406 C 140.851562 68.703125 141.914062 69.28125 141.914062 69.28125 L 142.355469 70.699219 C 142.355469 70.699219 143.953125 71.316406 144.039062 70.652344 C 144.132812 69.988281 143.597656 68.792969 143.597656 68.480469 C 143.597656 68.171875 143.820312 67.863281 144.351562 67.546875 C 144.882812 67.238281 144.882812 67.019531 145.636719 67.019531 C 146.390625 67.019531 146.390625 66.929688 147.542969 66.707031 C 148.695312 66.484375 150.421875 66.179688 149.933594 66.574219 C 149.449219 66.976562 149.136719 67.726562 148.695312 68.039062 C 148.25 68.347656 146.96875 67.863281 146.96875 67.863281 C 146.96875 67.863281 147.453125 69.28125 147.941406 70.078125 C 148.429688 70.875 149.628906 71.671875 150.070312 72.023438 C 150.511719 72.382812 151.886719 73.535156 153.257812 72.910156 C 154.632812 72.292969 154.589844 72.113281 154.988281 72.113281 C 155.386719 72.113281 156.316406 72.113281 156.585938 72.246094 C 156.847656 72.382812 157.027344 71.496094 157.292969 73.574219 C 157.558594 75.660156 157.78125 75.972656 157.558594 76.371094 C 157.335938 76.769531 156.316406 78.230469 155.519531 78.542969 C 154.722656 78.851562 156.671875 79.386719 153.304688 78.71875 C 149.933594 78.054688 148.164062 77.964844 148.164062 77.964844 C 148.164062 77.964844 148.339844 78.941406 145.816406 77.964844 C 143.289062 76.992188 142.753906 76.542969 142.753906 76.542969 C 142.753906 76.542969 143.023438 75.351562 142.003906 76.191406 C 140.984375 77.035156 140.761719 77.214844 140.761719 77.609375 C 140.761719 78.007812 140.851562 78.277344 140.363281 78.496094 C 139.875 78.71875 140.230469 78.851562 139.476562 78.851562 C 138.722656 78.851562 139.121094 79.164062 137.039062 78.585938 C 134.957031 78.007812 134.558594 78.453125 134.027344 77.609375 C 133.496094 76.769531 133.890625 77.078125 132.828125 76.238281 C 131.765625 75.394531 131.632812 75.617188 131.097656 74.6875 C 130.570312 73.753906 130.480469 74.023438 130.480469 73.179688 C 130.480469 72.339844 130.96875 71.894531 130.390625 71.761719 C 129.816406 71.628906 129.992188 71.226562 129.105469 71.585938 C 128.222656 71.9375 128.796875 71.9375 127.597656 72.203125 C 126.402344 72.46875 126.179688 72.910156 124.585938 72.957031 C 122.992188 73.003906 122.457031 73.003906 121.96875 73.003906 C 121.484375 73.003906 120.332031 73.800781 119.179688 73.84375 C 118.027344 73.886719 116.789062 74.0625 116.121094 73.886719 C 115.457031 73.710938 115.5 71.980469 114.304688 73.222656 C 113.109375 74.464844 109.785156 76.945312 109.476562 77.917969 C 109.164062 78.894531 108.941406 79.515625 108.765625 80.003906 C 108.585938 80.488281 108.898438 80.535156 108.230469 81.15625 C 107.566406 81.777344 106.992188 82.21875 106.546875 82.839844 C 106.105469 83.460938 106.285156 83.726562 105.882812 84.082031 C 105.484375 84.4375 104.554688 85.101562 104.242188 85.320312 C 103.933594 85.542969 102.070312 88.601562 101.808594 89.886719 C 101.539062 91.171875 101.40625 91.261719 101.40625 91.839844 C 101.40625 92.414062 101.761719 93.210938 101.847656 93.566406 C 101.9375 93.921875 102.25 94.539062 102.25 94.894531 C 102.25 95.25 102.472656 95.425781 102.117188 95.957031 C 101.761719 96.492188 101.363281 96.710938 101.230469 96.890625 C 101.097656 97.066406 101.007812 97.554688 101.007812 97.6875 C 101.007812 97.816406 101.050781 98.398438 101.050781 98.398438 C 101.050781 98.398438 101.320312 99.191406 101.40625 99.371094 C 101.496094 99.546875 102.382812 102.074219 102.914062 102.472656 C 103.445312 102.871094 105.175781 103.539062 105.484375 104.023438 C 105.792969 104.511719 105.792969 105.621094 105.882812 105.886719 C 105.972656 106.152344 105.882812 106.679688 106.503906 107.347656 C 107.125 108.011719 107.964844 108.457031 108.410156 109.03125 C 108.855469 109.605469 110.09375 110.277344 110.535156 110.363281 C 110.980469 110.449219 111.820312 110.363281 112.222656 110.363281 C 112.621094 110.363281 112.089844 110.230469 113.59375 109.875 C 115.101562 109.519531 115.765625 109.429688 116.386719 109.429688 C 117.007812 109.429688 117.453125 109.34375 119.046875 108.808594 C 120.644531 108.28125 122.371094 108.011719 123.035156 107.96875 C 123.699219 107.925781 124.941406 108.367188 124.941406 108.679688 C 124.941406 108.988281 126.003906 109.785156 127.378906 109.964844 C 128.75 110.140625 129.285156 109.34375 129.460938 110.804688 C 129.636719 112.269531 132.074219 111.558594 130.96875 113.242188 C 129.859375 114.925781 129.726562 115.28125 129.550781 116.214844 C 129.371094 117.144531 129.328125 116.878906 131.234375 120.023438 C 133.140625 123.167969 133.183594 123.613281 133.539062 125.34375 C 133.890625 127.070312 133.980469 127.335938 134.160156 127.867188 C 134.335938 128.398438 134.558594 128.574219 134.46875 129.152344 C 134.378906 129.726562 133.847656 130.570312 133.582031 131.28125 C 133.316406 131.984375 132.210938 134.070312 132.609375 135.886719 C 133.007812 137.707031 133.671875 139.65625 133.980469 140.324219 C 134.289062 140.984375 135.3125 141.429688 135.53125 143.289062 C 135.753906 145.152344 135.574219 145.238281 135.929688 146.480469 C 136.285156 147.71875 135.3125 146.570312 136.949219 148.917969 C 138.589844 151.269531 138.679688 151.445312 138.8125 151.976562 C 138.945312 152.507812 139.121094 153.484375 139.167969 153.613281 C 139.210938 153.746094 139.34375 154.191406 139.34375 154.589844 C 139.34375 154.988281 138.503906 154.503906 139.785156 155.609375 C 141.074219 156.714844 140.9375 156.9375 141.335938 156.851562 C 141.734375 156.761719 142.003906 156.453125 143.199219 156.453125 C 144.394531 156.453125 147.894531 156.453125 148.121094 156.273438 C 148.339844 156.097656 149.40625 156.496094 149.933594 155.121094 L 154.011719 147.5 L 156.496094 143.070312 L 157.382812 138.105469 L 159.507812 135.800781 L 163.761719 133.316406 L 163.761719 127.648438 L 161.632812 124.101562 L 165.535156 117.542969 C 165.535156 117.542969 166.953125 113.640625 167.484375 113.640625 C 168.019531 113.640625 170.855469 111.871094 172.269531 110.277344 C 173.691406 108.679688 173.691406 106.195312 173.867188 105.132812 C 174.042969 104.070312 174.929688 103.003906 174.929688 103.003906 L 168.726562 103.003906 C 168.726562 103.003906 166.421875 105.664062 165.359375 101.054688 C 164.296875 96.449219 160.574219 91.660156 160.039062 90.597656 C 159.507812 89.53125 159.328125 89.179688 157.914062 87.226562 C 156.496094 85.277344 155.253906 80.316406 155.253906 80.316406 L 156.671875 79.429688 L 159.152344 85.277344 C 159.152344 85.277344 159.683594 85.632812 161.28125 86.519531 C 162.878906 87.40625 163.585938 89.53125 163.585938 89.53125 C 163.585938 89.53125 163.9375 91.128906 164.824219 92.011719 C 165.710938 92.902344 167.128906 95.203125 167.308594 96.269531 C 167.484375 97.332031 168.019531 98.398438 168.019531 98.398438 C 168.019531 98.398438 171.03125 99.992188 172.269531 99.105469 C 173.511719 98.21875 177.058594 96.09375 177.058594 96.09375 C 177.058594 96.09375 177.765625 94.675781 179.007812 93.964844 C 180.246094 93.253906 182.90625 91.128906 182.90625 91.128906 C 182.90625 91.128906 185.386719 90.953125 182.730469 88.820312 C 180.070312 86.695312 181.667969 85.277344 177.058594 86.519531 C 172.449219 87.761719 175.285156 87.40625 173.511719 85.988281 C 171.738281 84.566406 170.144531 82.617188 170.144531 82.617188 L 170.144531 80.488281 C 170.144531 80.488281 169.082031 79.25 171.5625 80.136719 C 174.042969 81.023438 173.691406 80.667969 175.285156 81.730469 C 176.878906 82.796875 178.65625 83.503906 178.65625 83.503906 C 178.65625 83.503906 179.363281 83.679688 180.605469 84.039062 C 181.84375 84.394531 184.855469 85.277344 184.855469 85.277344 C 184.855469 85.277344 184.152344 85.632812 187.164062 85.632812 C 190.175781 85.632812 191.238281 85.632812 191.238281 85.632812 L 194.78125 89.179688 C 194.910156 89.179688 195.203125 89.179688 195.847656 89.179688 C 195.847656 89.179688 196.484375 89.234375 197.058594 89.480469 C 194.203125 68.621094 184.667969 49.890625 170.679688 35.515625 "/>
<path style=" stroke:none;fill-rule:nonzero;fill:rgb(38.038635%,79.60968%,89.019775%);fill-opacity:1;" d="M 80.226562 121.089844 C 79.46875 120.777344 78.894531 120.867188 78.097656 120.375 C 77.296875 119.890625 75.878906 119.492188 74.597656 119.003906 C 73.3125 118.515625 73.445312 118.207031 72.910156 118.515625 C 72.378906 118.828125 71.359375 119.09375 71.09375 119.003906 C 70.828125 118.914062 70.605469 119.269531 70.253906 118.695312 C 69.898438 118.117188 70.917969 118.207031 69.675781 117.628906 C 68.4375 117.050781 68.65625 116.609375 67.859375 116.964844 C 67.058594 117.320312 66.664062 117.71875 66.308594 117.898438 C 65.953125 118.070312 65.691406 118.515625 65.242188 117.808594 C 64.800781 117.097656 66.351562 117.230469 65.554688 116.433594 C 64.757812 115.636719 63.558594 116.523438 63.207031 116.742188 C 62.851562 116.964844 62.144531 116.5625 62.144531 116.214844 C 62.144531 115.855469 65.730469 115.457031 63.914062 112.84375 C 62.097656 110.230469 61.875 109.519531 60.679688 109.253906 C 59.484375 108.988281 58.375 108.589844 57.929688 108.414062 C 57.488281 108.234375 58.417969 108.898438 56.558594 107.703125 C 54.699219 106.507812 54.121094 106.507812 53.457031 105.886719 C 52.789062 105.261719 51.417969 103.539062 49.023438 103.539062 C 46.632812 103.539062 45.878906 103.273438 44.992188 102.648438 C 44.105469 102.03125 43.660156 100.96875 43.21875 101.851562 C 42.777344 102.738281 42.066406 102.695312 42.066406 103.582031 C 42.066406 104.46875 42.863281 105.089844 41.933594 104.734375 C 41 104.378906 39.496094 103.757812 40.027344 103.226562 C 40.558594 102.695312 40.691406 102.648438 40.691406 102.339844 C 40.691406 102.03125 40.074219 101.765625 39.628906 101.984375 C 39.183594 102.207031 37.988281 102.5625 37.679688 103.183594 C 37.367188 103.800781 36.570312 104.332031 36.4375 104.558594 C 36.304688 104.777344 34.265625 104.425781 33.070312 103.933594 C 31.871094 103.449219 31.207031 104.957031 30.457031 104.558594 C 29.699219 104.15625 28.949219 103.273438 28.949219 102.828125 C 28.949219 102.386719 28.726562 102.207031 28.773438 100.746094 C 28.816406 99.28125 28.816406 98.351562 28.816406 98.042969 C 28.816406 97.730469 28.679688 97.242188 27.664062 97.066406 C 26.644531 96.890625 25.84375 96.578125 25.535156 96.664062 C 25.222656 96.757812 23.453125 96.316406 23.761719 95.425781 C 24.074219 94.539062 24.296875 93.609375 24.558594 92.855469 C 24.828125 92.101562 25.046875 91.882812 25.007812 91.570312 C 24.960938 91.261719 24.738281 90.417969 24.296875 90.375 C 23.851562 90.332031 23.007812 90.460938 22.699219 91.214844 C 22.390625 91.96875 21.945312 93.300781 21.457031 93.699219 C 20.96875 94.097656 19.464844 94.628906 18.578125 94.140625 C 17.695312 93.652344 16.183594 93.34375 15.921875 92.414062 C 15.652344 91.484375 15.5625 91.484375 15.429688 90.683594 C 15.296875 89.886719 15.046875 89.417969 15.296875 88.027344 C 15.453125 87.167969 13.882812 86.164062 15.652344 84.566406 C 17.425781 82.972656 17.957031 82.527344 18.667969 81.640625 C 19.378906 80.757812 19.199219 80.667969 20.261719 80.316406 C 21.328125 79.960938 21.679688 79.78125 22.300781 79.871094 C 22.921875 79.960938 23.632812 81.289062 23.894531 81.289062 C 24.164062 81.289062 23.542969 82.796875 24.960938 81.289062 C 26.378906 79.78125 26.554688 79.164062 26.910156 79.070312 C 27.265625 78.984375 27.53125 78.894531 28.503906 79.25 C 29.480469 79.605469 29.65625 80.757812 30.457031 81.289062 C 31.253906 81.824219 30.691406 79.367188 30.808594 79.457031 C 30.925781 79.546875 31.871094 80.402344 31.785156 80.785156 C 31.695312 81.171875 31.753906 81.910156 31.785156 82.027344 C 31.816406 82.144531 32.078125 83.003906 32.140625 83.152344 C 32.199219 83.296875 32.320312 84.125 32.523438 84.511719 C 32.730469 84.894531 32.320312 85.398438 33.261719 85.484375 C 34.207031 85.574219 34.445312 85.101562 34.59375 84.214844 C 34.738281 83.328125 34.859375 82.679688 34.59375 82.144531 C 34.324219 81.617188 34.089844 81.671875 34.089844 81.082031 C 34.089844 80.488281 34.089844 78.660156 34.445312 78.277344 C 34.796875 77.890625 34.234375 78.363281 35.242188 77.417969 C 36.246094 76.472656 36.925781 76.472656 37.574219 76 C 38.226562 75.527344 38.460938 75.289062 39.082031 74.96875 C 39.703125 74.640625 39.730469 74.761719 40.175781 74.285156 C 40.617188 73.816406 40.972656 73.78125 41.238281 73.074219 C 41.507812 72.367188 41.507812 72.246094 41.59375 71.449219 C 41.683594 70.652344 41.386719 70.148438 41.859375 69.855469 C 42.332031 69.5625 43.070312 68.878906 43.453125 69.203125 C 43.839844 69.53125 45.566406 68.214844 46.71875 66.886719 C 47.875 65.554688 47.875 65.289062 48.402344 65.070312 C 48.9375 64.847656 49.066406 65.023438 49.957031 64.539062 C 50.839844 64.050781 50.574219 64.226562 51.285156 63.648438 C 51.992188 63.074219 51.460938 63.5625 52.433594 62.71875 C 53.410156 61.878906 53.234375 62.011719 54.074219 61.523438 C 54.917969 61.035156 54.699219 61.078125 55.316406 60.949219 C 55.9375 60.8125 56.203125 60.460938 56.515625 61.035156 C 56.824219 61.613281 57.710938 61.210938 56.957031 61.789062 C 56.203125 62.367188 55.582031 62.675781 55.539062 62.898438 C 55.496094 63.117188 54.742188 63.871094 56.335938 63.472656 C 57.929688 63.074219 57.578125 63.253906 58.199219 62.675781 C 58.820312 62.097656 59.128906 61.878906 59.75 61.613281 C 60.371094 61.34375 60.8125 61.921875 60.371094 61.34375 C 59.925781 60.769531 59.347656 60.238281 58.996094 60.238281 C 58.640625 60.238281 58.066406 60.148438 58.019531 59.839844 C 57.976562 59.527344 57.929688 58.90625 57.929688 58.90625 C 57.929688 58.90625 58.640625 58.507812 57.265625 58.507812 C 55.894531 58.507812 56.46875 58.464844 55.40625 58.597656 C 54.34375 58.730469 52.835938 59.265625 53.5 58.199219 C 54.164062 57.136719 57.886719 56.296875 58.019531 56.296875 C 58.15625 56.296875 58.417969 55.851562 59.21875 55.539062 C 60.015625 55.230469 61.742188 54.964844 62.453125 54.964844 C 63.164062 54.964844 65.289062 54.566406 65.421875 54.519531 C 65.554688 54.476562 69.054688 52.660156 68.835938 52.214844 C 68.613281 51.773438 69.101562 52.835938 67.414062 51.328125 C 65.730469 49.820312 66.265625 51.109375 65.730469 49.425781 C 65.199219 47.738281 65.792969 45.746094 65.613281 44.976562 C 65.4375 44.210938 64.789062 45.277344 63.902344 45.511719 C 63.015625 45.746094 62.714844 45.746094 62.070312 45.746094 C 61.417969 45.746094 60.238281 45.921875 60.175781 45.332031 C 60.117188 44.742188 60.238281 43.441406 59.347656 43.441406 C 58.464844 43.441406 57.105469 42.910156 56.457031 43.085938 C 55.804688 43.265625 54.148438 44.03125 53.738281 44.621094 C 53.324219 45.210938 53.027344 45.921875 52.433594 46.574219 C 51.84375 47.226562 50.839844 48.109375 50.429688 48.816406 C 50.015625 49.527344 48.0625 52.007812 47.59375 52.894531 C 47.117188 53.78125 46.703125 54.546875 46.054688 54.667969 C 45.402344 54.789062 44.753906 55.378906 44.8125 54.136719 C 44.875 52.894531 44.992188 53.488281 44.992188 52.363281 C 44.992188 51.242188 46.644531 50.886719 44.992188 50.707031 C 43.335938 50.53125 46.054688 51.832031 43.101562 50.355469 C 40.148438 48.875 40.148438 48.816406 39.730469 48.523438 C 39.320312 48.226562 38.667969 49.820312 38.078125 47.402344 C 37.488281 44.976562 39.257812 44.210938 39.792969 43.855469 C 39.792969 43.855469 42.6875 41.785156 43.042969 41.726562 C 43.398438 41.667969 45.699219 41.257812 45.878906 41.257812 C 46.054688 41.257812 48.238281 39.957031 48.238281 39.957031 L 48.183594 39.304688 C 48.183594 39.304688 47.949219 39.007812 48.894531 39.007812 C 49.835938 39.007812 52.789062 38.242188 53.144531 38.242188 C 53.5 38.242188 54.742188 38.300781 55.214844 37.886719 C 55.6875 37.476562 55.804688 37.058594 56.039062 36.53125 C 56.277344 35.996094 57.875 35.699219 56.394531 35.582031 C 54.917969 35.464844 53.207031 35.820312 52.851562 35.820312 C 52.496094 35.820312 52.320312 37.058594 51.433594 35.820312 C 50.546875 34.574219 50.546875 34.519531 50.25 34.164062 C 49.957031 33.808594 48.894531 32.984375 49.1875 32.570312 C 49.480469 32.15625 50.839844 31.800781 51.195312 31.503906 C 51.550781 31.207031 54.976562 31.503906 51.789062 30.914062 C 48.597656 30.324219 47.59375 29.730469 47.355469 30.324219 C 47.117188 30.914062 46.585938 33.042969 46.234375 33.75 C 45.878906 34.460938 46.171875 34.695312 45.464844 35.464844 C 44.753906 36.230469 43.511719 37.414062 42.921875 37.414062 C 42.332031 37.414062 38.847656 39.007812 35.0625 39.007812 C 31.28125 39.007812 31.933594 39.777344 30.691406 39.007812 C 30.382812 38.816406 30.109375 38.679688 29.847656 38.558594 C 17.328125 52.578125 8.851562 70.285156 6.253906 89.851562 C 6.316406 90.480469 6.40625 90.710938 6.40625 91.066406 C 6.40625 91.484375 7.648438 93.433594 9.359375 94.316406 C 11.074219 95.203125 13.734375 96.859375 15.035156 96.800781 C 16.332031 96.738281 17.28125 96.917969 18.105469 97.332031 C 18.933594 97.746094 20.472656 99.699219 21.589844 99.8125 C 22.714844 99.933594 24.25 100.289062 24.488281 100.40625 C 24.722656 100.523438 25.195312 101.707031 25.195312 101.707031 C 25.195312 101.707031 26.730469 103.59375 27.617188 104.539062 C 28.503906 105.484375 30.457031 106.195312 30.691406 106.195312 C 30.925781 106.195312 30.984375 106.375 31.515625 106.078125 C 32.050781 105.785156 33.054688 105.132812 33.410156 105.664062 C 33.765625 106.195312 33.644531 105.25 34.53125 106.847656 C 35.417969 108.441406 35.363281 109.445312 34.59375 111.335938 C 33.820312 113.226562 33.113281 113.996094 32.816406 114.410156 C 32.523438 114.824219 31.933594 115.414062 31.871094 115.707031 C 31.816406 116.003906 31.753906 116.300781 31.402344 117.1875 C 31.046875 118.070312 31.046875 119.433594 31.046875 119.433594 C 31.046875 119.433594 31.515625 120.378906 31.636719 120.96875 C 31.753906 121.5625 30.574219 123.449219 32.113281 124.871094 C 33.644531 126.285156 33.410156 128.117188 35.007812 129.242188 C 36.601562 130.363281 37.839844 131.011719 37.898438 132.199219 C 37.957031 133.378906 38.078125 134.914062 39.320312 135.5625 C 40.558594 136.214844 40.855469 135.917969 41.152344 136.273438 C 41.445312 136.628906 44.871094 138.042969 44.8125 142.179688 C 44.753906 146.320312 44.457031 149.921875 44.636719 150.867188 C 44.8125 151.816406 44.933594 153.765625 44.933594 154.355469 C 44.933594 154.945312 45.226562 155.535156 45.226562 155.832031 C 45.226562 156.125 45.347656 156.894531 45.464844 157.902344 C 45.582031 158.902344 45.285156 161.445312 45.582031 162.683594 C 45.878906 163.929688 45.644531 164.992188 46.351562 165.347656 C 47.058594 165.699219 47.472656 165.933594 47.472656 165.933594 C 47.472656 165.933594 48.183594 168.242188 48.183594 168.59375 C 48.183594 168.949219 48.183594 169.835938 48.125 170.308594 C 48.0625 170.78125 47.886719 171.136719 47.886719 171.375 C 47.886719 171.609375 48.714844 172.378906 49.007812 172.789062 C 49.304688 173.203125 50.488281 175.804688 50.839844 176.277344 C 51.195312 176.746094 53.914062 178.167969 54.210938 178.285156 C 54.503906 178.402344 55.332031 179.226562 55.511719 179.527344 C 55.6875 179.824219 55.863281 180.53125 56.574219 180.707031 C 57.28125 180.886719 58.226562 181.003906 58.226562 181.003906 C 58.226562 181.003906 58.34375 180.824219 58.640625 180.769531 C 58.9375 180.707031 57.636719 177.8125 57.636719 177.8125 C 57.636719 177.8125 57.339844 177.402344 57.105469 177.402344 C 56.867188 177.402344 56.21875 177.632812 56.160156 176.808594 C 56.097656 175.980469 55.863281 174.683594 55.921875 174.503906 C 55.984375 174.328125 56.160156 173.796875 56.039062 173.324219 C 55.921875 172.851562 55.746094 172.378906 55.570312 171.375 C 55.390625 170.367188 55.09375 169.070312 55.390625 168.59375 C 55.6875 168.121094 55.863281 168.242188 55.921875 167.414062 C 55.984375 166.585938 56.097656 166.824219 55.804688 165.636719 C 55.511719 164.457031 56.160156 163.867188 56.867188 163.101562 C 57.578125 162.332031 57.636719 162.453125 58.640625 161.5625 C 59.644531 160.675781 61.125 160.617188 60.238281 159.378906 C 60.238281 159.378906 59.082031 157.84375 59.0625 157.207031 C 59.042969 156.5625 59.042969 156.429688 59.261719 156.429688 C 59.484375 156.429688 59.347656 156.675781 60.328125 156.808594 C 61.300781 156.9375 62.007812 157.09375 62.40625 156.761719 C 62.808594 156.429688 66.175781 153.644531 66.144531 153.144531 C 66.113281 152.640625 66.621094 150.839844 66.824219 150.515625 C 67.03125 150.1875 67.179688 149.65625 67.296875 149.242188 C 67.414062 148.828125 67.328125 147.914062 67.445312 147.527344 C 67.566406 147.144531 67.238281 147.441406 67.742188 146.523438 C 68.242188 145.609375 71.140625 143.453125 72.234375 142.949219 C 73.324219 142.449219 73.859375 142.832031 74.121094 142.890625 C 74.390625 142.949219 76.308594 139.964844 76.515625 138.074219 C 76.722656 136.183594 76.902344 133.140625 76.855469 132.785156 C 76.8125 132.433594 76.765625 131.101562 77.164062 130.882812 C 77.566406 130.660156 78.097656 130.4375 78.539062 129.816406 C 78.980469 129.195312 78.894531 129.464844 79.691406 128 C 80.488281 126.535156 80.445312 126.671875 80.664062 125.832031 C 80.890625 124.984375 80.933594 125.03125 80.84375 123.480469 C 80.753906 121.929688 80.976562 121.394531 80.226562 121.089844 "/>
</g>
</defs>
<g id="surface1">
<rect x="0" y="0" width="375" height="374.999991" style="fill:rgb(100%,100%,100%);fill-opacity:1;stroke:none;"/>
<rect x="0" y="0" width="375" height="374.999991" style="fill:rgb(100%,100%,100%);fill-opacity:1;stroke:none;"/>
<rect x="0" y="0" width="375" height="374.999991" style="fill:rgb(100%,100%,100%);fill-opacity:1;stroke:none;"/>
<path style=" stroke:none;fill-rule:nonzero;fill:rgb(94.898987%,96.469116%,97.24884%);fill-opacity:1;" d="M 295.242188 187.511719 C 295.242188 128.011719 247.011719 79.777344 187.511719 79.777344 C 128.011719 79.777344 79.777344 128.011719 79.777344 187.511719 C 79.777344 247.011719 128.011719 295.242188 187.511719 295.242188 C 247.011719 295.242188 295.242188 247.011719 295.242188 187.511719 "/>
<g clip-path="url(#clip1)" clip-rule="nonzero">
<path style=" stroke:none;fill-rule:nonzero;fill:rgb(16.468811%,23.139954%,58.428955%);fill-opacity:1;" d="M 187.511719 81.921875 C 129.289062 81.921875 81.921875 129.289062 81.921875 187.511719 C 81.921875 245.730469 129.289062 293.101562 187.511719 293.101562 C 245.730469 293.101562 293.101562 245.730469 293.101562 187.511719 C 293.101562 129.289062 245.730469 81.921875 187.511719 81.921875 Z M 187.511719 297.386719 C 158.160156 297.386719 130.570312 285.957031 109.816406 265.203125 C 89.066406 244.449219 77.636719 216.859375 77.636719 187.511719 C 77.636719 158.160156 89.066406 130.570312 109.816406 109.816406 C 130.570312 89.066406 158.160156 77.636719 187.511719 77.636719 C 216.859375 77.636719 244.449219 89.066406 265.203125 109.816406 C 285.957031 130.570312 297.386719 158.160156 297.386719 187.511719 C 297.386719 216.859375 285.957031 244.449219 265.203125 265.203125 C 244.449219 285.957031 216.859375 297.386719 187.511719 297.386719 "/>
</g>
<path style=" stroke:none;fill-rule:nonzero;fill:rgb(98.039246%,98.81897%,99.21875%);fill-opacity:1;" d="M 286.183594 187.511719 C 286.183594 133.015625 242.007812 88.835938 187.511719 88.835938 C 133.015625 88.835938 88.835938 133.015625 88.835938 187.511719 C 88.835938 242.007812 133.015625 286.183594 187.511719 286.183594 C 242.007812 286.183594 286.183594 242.007812 286.183594 187.511719 "/>
<path style=" stroke:none;fill-rule:nonzero;fill:rgb(100%,100%,100%);fill-opacity:1;" d="M 279.082031 187.511719 C 279.082031 136.9375 238.085938 95.9375 187.511719 95.9375 C 136.9375 95.9375 95.9375 136.9375 95.9375 187.511719 C 95.9375 238.085938 136.9375 279.082031 187.511719 279.082031 C 238.085938 279.082031 279.082031 238.085938 279.082031 187.511719 "/>
<path style=" stroke:none;fill-rule:nonzero;fill:rgb(16.468811%,23.139954%,58.428955%);fill-opacity:1;" d="M 174.539062 122.808594 C 185.480469 122.808594 194.382812 131.714844 194.382812 142.65625 C 194.382812 153.601562 185.480469 162.503906 174.539062 162.503906 C 163.589844 162.503906 154.6875 153.601562 154.6875 142.65625 C 154.6875 131.714844 163.589844 122.808594 174.539062 122.808594 Z M 174.539062 166.789062 C 187.84375 166.789062 198.667969 155.964844 198.667969 142.65625 C 198.667969 129.351562 187.84375 118.523438 174.539062 118.523438 C 161.226562 118.523438 150.402344 129.351562 150.402344 142.65625 C 150.402344 155.964844 161.226562 166.789062 174.539062 166.789062 "/>
<path style=" stroke:none;fill-rule:nonzero;fill:rgb(16.468811%,23.139954%,58.428955%);fill-opacity:1;" d="M 200.089844 248.078125 C 198.90625 248.078125 197.945312 249.039062 197.945312 250.222656 L 197.945312 252.085938 C 197.945312 254.042969 196.351562 255.640625 194.394531 255.640625 L 154.675781 255.640625 C 152.714844 255.640625 151.121094 254.042969 151.121094 252.085938 L 151.121094 235.464844 C 151.121094 234.28125 150.160156 233.320312 148.976562 233.320312 C 147.796875 233.320312 146.835938 234.28125 146.835938 235.464844 L 146.835938 252.085938 C 146.835938 256.40625 150.351562 259.921875 154.675781 259.921875 L 194.394531 259.921875 C 198.714844 259.921875 202.230469 256.40625 202.230469 252.085938 L 202.230469 250.222656 C 202.230469 249.039062 201.273438 248.078125 200.089844 248.078125 "/>
<path style=" stroke:none;fill-rule:nonzero;fill:rgb(16.468811%,23.139954%,58.428955%);fill-opacity:1;" d="M 218.246094 207.742188 C 214.652344 208.992188 212.199219 211.636719 211.3125 215.371094 C 210.429688 219.09375 211.667969 222.65625 214.664062 225.402344 L 211.882812 239.113281 L 167.195312 239.113281 L 169.523438 227.628906 C 169.632812 227.371094 169.695312 227.085938 169.695312 226.789062 C 169.695312 226.789062 169.695312 226.785156 169.695312 226.785156 L 173.335938 208.835938 C 173.335938 208.832031 173.335938 208.832031 173.335938 208.828125 L 173.339844 208.808594 L 180.015625 175.898438 L 224.703125 175.898438 Z M 222.894531 211.210938 C 223.351562 211.210938 223.773438 211.40625 224.0625 211.75 C 224.230469 211.949219 224.492188 212.371094 224.359375 212.96875 L 222.136719 223.007812 C 222.003906 223.605469 221.585938 223.878906 221.347656 223.988281 C 220.917969 224.1875 220.421875 224.171875 219.992188 223.941406 C 219.476562 223.664062 218.882812 223.308594 218.292969 222.863281 C 218.265625 222.84375 218.238281 222.816406 218.207031 222.796875 C 216.445312 221.441406 214.777344 219.324219 215.480469 216.359375 C 216.1875 213.390625 218.304688 212.070312 220.5 211.535156 C 220.515625 211.53125 220.535156 211.523438 220.550781 211.519531 C 221.316406 211.335938 222.097656 211.246094 222.824219 211.210938 C 222.847656 211.210938 222.871094 211.210938 222.894531 211.210938 Z M 228.980469 172.402344 C 228.574219 171.902344 227.964844 171.613281 227.324219 171.613281 L 178.265625 171.613281 C 177.246094 171.613281 176.367188 172.332031 176.164062 173.332031 L 169.929688 204.0625 L 162.820312 196.953125 C 161.984375 196.117188 160.628906 196.117188 159.792969 196.953125 C 158.953125 197.789062 158.953125 199.144531 159.792969 199.984375 L 166.066406 206.257812 L 151.367188 206.257812 C 151.234375 206.257812 151.121094 206.148438 151.121094 206.011719 L 151.121094 197.25 C 151.121094 196.070312 150.160156 195.109375 148.980469 195.109375 C 147.796875 195.109375 146.835938 196.070312 146.835938 197.25 L 146.835938 206.011719 C 146.835938 208.511719 148.871094 210.542969 151.367188 210.542969 L 168.617188 210.542969 L 165.753906 224.648438 L 141.417969 224.648438 C 136.566406 224.648438 132.621094 220.699219 132.621094 215.847656 L 132.621094 196.171875 C 132.621094 184.992188 141.714844 175.898438 152.890625 175.898438 L 169.105469 175.898438 C 170.289062 175.898438 171.246094 174.9375 171.246094 173.757812 C 171.246094 172.574219 170.289062 171.613281 169.105469 171.613281 L 152.890625 171.613281 C 139.351562 171.613281 128.335938 182.628906 128.335938 196.171875 L 128.335938 215.847656 C 128.335938 223.0625 134.203125 228.929688 141.417969 228.929688 L 164.886719 228.929688 L 162.476562 240.828125 C 162.347656 241.457031 162.507812 242.113281 162.914062 242.609375 C 163.324219 243.109375 163.929688 243.398438 164.574219 243.398438 L 213.632812 243.398438 C 214.652344 243.398438 215.53125 242.679688 215.734375 241.679688 L 218.515625 227.96875 C 219.226562 228.261719 219.96875 228.414062 220.71875 228.414062 C 221.539062 228.414062 222.363281 228.238281 223.140625 227.878906 C 224.773438 227.128906 225.933594 225.6875 226.320312 223.933594 L 228.542969 213.894531 C 228.929688 212.148438 228.492188 210.367188 227.347656 208.996094 C 226.210938 207.644531 224.554688 206.902344 222.78125 206.933594 L 229.421875 174.183594 C 229.550781 173.550781 229.390625 172.898438 228.980469 172.402344 "/>
<path style=" stroke:none;fill-rule:nonzero;fill:rgb(96.859741%,58.039856%,11.369324%);fill-opacity:1;" d="M 246.460938 156.328125 C 242.296875 159.433594 236.761719 161.105469 230.828125 161.078125 C 226.210938 161.042969 221.800781 159.953125 218.074219 157.921875 C 217.757812 157.746094 217.40625 157.660156 217.050781 157.660156 C 216.65625 157.660156 216.257812 157.769531 215.910156 157.988281 C 214.390625 158.945312 212.84375 159.597656 211.46875 160.039062 C 212.160156 158.640625 212.773438 157.003906 213.039062 155.261719 C 213.132812 154.644531 212.953125 154.019531 212.546875 153.542969 C 210.335938 150.972656 209.179688 148.015625 209.199219 144.996094 C 209.230469 140.859375 211.441406 136.941406 215.425781 133.972656 C 219.539062 130.910156 225.003906 129.226562 230.839844 129.226562 C 230.910156 129.226562 230.984375 129.226562 231.058594 129.226562 C 243.042969 129.3125 252.75 136.527344 252.683594 145.308594 C 252.65625 149.445312 250.445312 153.359375 246.460938 156.328125 Z M 231.085938 124.941406 C 224.242188 124.890625 217.773438 126.878906 212.867188 130.539062 C 207.777344 134.328125 204.953125 139.453125 204.914062 144.964844 C 204.890625 148.707031 206.167969 152.328125 208.621094 155.507812 C 207.785156 158.84375 205.34375 161.675781 205.316406 161.707031 C 204.753906 162.347656 204.625 163.261719 204.992188 164.035156 C 205.359375 164.808594 206.132812 165.289062 207.003906 165.257812 C 207.222656 165.25 212.070312 165.046875 217.121094 162.246094 C 221.21875 164.253906 225.917969 165.324219 230.796875 165.363281 C 230.878906 165.363281 230.964844 165.363281 231.046875 165.363281 C 237.796875 165.363281 244.171875 163.378906 249.019531 159.765625 C 254.105469 155.976562 256.929688 150.851562 256.96875 145.335938 C 257.046875 134.195312 245.441406 125.046875 231.085938 124.941406 "/>
<path style=" stroke:none;fill-rule:nonzero;fill:rgb(96.859741%,58.039856%,11.369324%);fill-opacity:1;" d="M 236.769531 138.234375 L 229.09375 145.910156 L 224.984375 141.804688 C 224.148438 140.96875 222.792969 140.96875 221.957031 141.804688 C 221.121094 142.640625 221.121094 143.996094 221.957031 144.835938 L 227.578125 150.457031 C 227.996094 150.875 228.546875 151.085938 229.09375 151.085938 C 229.644531 151.085938 230.191406 150.875 230.609375 150.457031 L 239.800781 141.265625 C 240.636719 140.429688 240.636719 139.070312 239.800781 138.234375 C 238.960938 137.398438 237.605469 137.398438 236.769531 138.234375 "/>
<path style=" stroke:none;fill-rule:nonzero;fill:rgb(65.098572%,78.039551%,16.468811%);fill-opacity:1;" d="M 208.257812 211.09375 C 208.257812 205.058594 203.367188 200.167969 197.332031 200.167969 C 191.296875 200.167969 186.40625 205.058594 186.40625 211.09375 C 186.40625 217.128906 191.296875 222.019531 197.332031 222.019531 C 203.367188 222.019531 208.257812 217.128906 208.257812 211.09375 "/>
<path style=" stroke:none;fill-rule:nonzero;fill:rgb(40.779114%,73.728943%,25.099182%);fill-opacity:1;" d="M 198.480469 201.316406 L 196.179688 201.316406 L 196.179688 197.292969 L 198.480469 197.292969 L 198.480469 201.316406 "/>
<g clip-path="url(#clip2)" clip-rule="nonzero">
<path style=" stroke:none;fill-rule:nonzero;fill:rgb(65.098572%,78.039551%,16.468811%);fill-opacity:1;" d="M 199.632812 196.714844 C 199.632812 195.445312 198.601562 194.414062 197.332031 194.414062 C 196.0625 194.414062 195.03125 195.445312 195.03125 196.714844 C 195.03125 197.988281 196.0625 199.015625 197.332031 199.015625 C 198.601562 199.015625 199.632812 197.988281 199.632812 196.714844 "/>
</g>
<path style=" stroke:none;fill-rule:nonzero;fill:rgb(40.779114%,73.728943%,25.099182%);fill-opacity:1;" d="M 193.4375 202.050781 L 191.445312 203.203125 L 189.433594 199.714844 L 191.425781 198.566406 L 193.4375 202.050781 "/>
<path style=" stroke:none;fill-rule:nonzero;fill:rgb(65.098572%,78.039551%,16.468811%);fill-opacity:1;" d="M 192.136719 197.492188 C 191.5 196.390625 190.09375 196.015625 188.992188 196.648438 C 187.890625 197.285156 187.515625 198.691406 188.148438 199.792969 C 188.785156 200.894531 190.191406 201.269531 191.292969 200.632812 C 192.394531 200 192.769531 198.59375 192.136719 197.492188 "/>
<path style=" stroke:none;fill-rule:nonzero;fill:rgb(40.779114%,73.728943%,25.099182%);fill-opacity:1;" d="M 189.441406 205.210938 L 188.289062 207.199219 L 184.804688 205.1875 L 185.953125 203.195312 L 189.441406 205.210938 "/>
<path style=" stroke:none;fill-rule:nonzero;fill:rgb(65.098572%,78.039551%,16.468811%);fill-opacity:1;" d="M 186.03125 201.914062 C 184.929688 201.277344 183.523438 201.652344 182.886719 202.753906 C 182.253906 203.855469 182.628906 205.261719 183.730469 205.898438 C 184.832031 206.53125 186.238281 206.15625 186.871094 205.054688 C 187.507812 203.953125 187.128906 202.546875 186.03125 201.914062 "/>
<path style=" stroke:none;fill-rule:nonzero;fill:rgb(40.779114%,73.728943%,25.099182%);fill-opacity:1;" d="M 187.554688 209.941406 L 187.554688 212.242188 L 183.527344 212.242188 L 183.527344 209.941406 L 187.554688 209.941406 "/>
<g clip-path="url(#clip3)" clip-rule="nonzero">
<path style=" stroke:none;fill-rule:nonzero;fill:rgb(65.098572%,78.039551%,16.468811%);fill-opacity:1;" d="M 182.953125 208.792969 C 181.683594 208.792969 180.652344 209.824219 180.652344 211.09375 C 180.652344 212.363281 181.683594 213.394531 182.953125 213.394531 C 184.222656 213.394531 185.253906 212.363281 185.253906 211.09375 C 185.253906 209.824219 184.222656 208.792969 182.953125 208.792969 "/>
</g>
<path style=" stroke:none;fill-rule:nonzero;fill:rgb(40.779114%,73.728943%,25.099182%);fill-opacity:1;" d="M 188.289062 214.984375 L 189.441406 216.976562 L 185.953125 218.992188 L 184.804688 217 L 188.289062 214.984375 "/>
<path style=" stroke:none;fill-rule:nonzero;fill:rgb(65.098572%,78.039551%,16.468811%);fill-opacity:1;" d="M 183.730469 216.289062 C 182.628906 216.925781 182.253906 218.332031 182.886719 219.433594 C 183.523438 220.53125 184.929688 220.910156 186.03125 220.273438 C 187.128906 219.640625 187.507812 218.230469 186.871094 217.132812 C 186.238281 216.03125 184.832031 215.65625 183.730469 216.289062 "/>
<path style=" stroke:none;fill-rule:nonzero;fill:rgb(40.779114%,73.728943%,25.099182%);fill-opacity:1;" d="M 191.445312 218.984375 L 193.4375 220.136719 L 191.425781 223.621094 L 189.433594 222.472656 L 191.445312 218.984375 "/>
<path style=" stroke:none;fill-rule:nonzero;fill:rgb(65.098572%,78.039551%,16.468811%);fill-opacity:1;" d="M 188.148438 222.394531 C 187.515625 223.496094 187.890625 224.902344 188.992188 225.535156 C 190.09375 226.171875 191.5 225.796875 192.136719 224.695312 C 192.769531 223.59375 192.394531 222.1875 191.292969 221.550781 C 190.191406 220.917969 188.785156 221.292969 188.148438 222.394531 "/>
<path style=" stroke:none;fill-rule:nonzero;fill:rgb(40.779114%,73.728943%,25.099182%);fill-opacity:1;" d="M 196.179688 220.871094 L 198.480469 220.871094 L 198.480469 224.894531 L 196.179688 224.894531 L 196.179688 220.871094 "/>
<g clip-path="url(#clip4)" clip-rule="nonzero">
<path style=" stroke:none;fill-rule:nonzero;fill:rgb(65.098572%,78.039551%,16.468811%);fill-opacity:1;" d="M 195.03125 225.46875 C 195.03125 226.742188 196.0625 227.769531 197.332031 227.769531 C 198.601562 227.769531 199.632812 226.742188 199.632812 225.46875 C 199.632812 224.199219 198.601562 223.171875 197.332031 223.171875 C 196.0625 223.171875 195.03125 224.199219 195.03125 225.46875 "/>
</g>
<path style=" stroke:none;fill-rule:nonzero;fill:rgb(40.779114%,73.728943%,25.099182%);fill-opacity:1;" d="M 201.222656 220.136719 L 203.214844 218.984375 L 205.226562 222.472656 L 203.234375 223.621094 L 201.222656 220.136719 "/>
<path style=" stroke:none;fill-rule:nonzero;fill:rgb(65.098572%,78.039551%,16.468811%);fill-opacity:1;" d="M 202.527344 224.695312 C 203.164062 225.796875 204.570312 226.171875 205.671875 225.535156 C 206.769531 224.902344 207.148438 223.496094 206.511719 222.394531 C 205.875 221.292969 204.46875 220.917969 203.371094 221.550781 C 202.269531 222.1875 201.890625 223.59375 202.527344 224.695312 "/>
<path style=" stroke:none;fill-rule:nonzero;fill:rgb(40.779114%,73.728943%,25.099182%);fill-opacity:1;" d="M 205.222656 216.976562 L 206.371094 214.984375 L 209.859375 217 L 208.710938 218.992188 L 205.222656 216.976562 "/>
<path style=" stroke:none;fill-rule:nonzero;fill:rgb(65.098572%,78.039551%,16.468811%);fill-opacity:1;" d="M 208.632812 220.273438 C 209.730469 220.910156 211.140625 220.53125 211.773438 219.433594 C 212.410156 218.332031 212.03125 216.925781 210.933594 216.289062 C 209.832031 215.65625 208.425781 216.03125 207.789062 217.132812 C 207.15625 218.230469 207.53125 219.640625 208.632812 220.273438 "/>
<path style=" stroke:none;fill-rule:nonzero;fill:rgb(40.779114%,73.728943%,25.099182%);fill-opacity:1;" d="M 207.109375 212.242188 L 207.109375 209.941406 L 211.132812 209.941406 L 211.132812 212.242188 L 207.109375 212.242188 "/>
<g clip-path="url(#clip5)" clip-rule="nonzero">
<path style=" stroke:none;fill-rule:nonzero;fill:rgb(65.098572%,78.039551%,16.468811%);fill-opacity:1;" d="M 211.707031 213.394531 C 212.980469 213.394531 214.007812 212.363281 214.007812 211.09375 C 214.007812 209.824219 212.980469 208.792969 211.707031 208.792969 C 210.4375 208.792969 209.40625 209.824219 209.40625 211.09375 C 209.40625 212.363281 210.4375 213.394531 211.707031 213.394531 "/>
</g>
<path style=" stroke:none;fill-rule:nonzero;fill:rgb(40.779114%,73.728943%,25.099182%);fill-opacity:1;" d="M 206.371094 207.199219 L 205.222656 205.210938 L 208.710938 203.195312 L 209.859375 205.1875 L 206.371094 207.199219 "/>
<path style=" stroke:none;fill-rule:nonzero;fill:rgb(65.098572%,78.039551%,16.468811%);fill-opacity:1;" d="M 210.933594 205.898438 C 212.03125 205.261719 212.410156 203.855469 211.773438 202.753906 C 211.140625 201.652344 209.730469 201.277344 208.632812 201.914062 C 207.53125 202.546875 207.15625 203.953125 207.789062 205.054688 C 208.425781 206.15625 209.832031 206.53125 210.933594 205.898438 "/>
<path style=" stroke:none;fill-rule:nonzero;fill:rgb(40.779114%,73.728943%,25.099182%);fill-opacity:1;" d="M 203.214844 203.203125 L 201.222656 202.050781 L 203.234375 198.566406 L 205.226562 199.714844 L 203.214844 203.203125 "/>
<path style=" stroke:none;fill-rule:nonzero;fill:rgb(65.098572%,78.039551%,16.468811%);fill-opacity:1;" d="M 206.511719 199.792969 C 207.148438 198.691406 206.769531 197.285156 205.671875 196.648438 C 204.570312 196.015625 203.164062 196.390625 202.527344 197.492188 C 201.890625 198.59375 202.269531 200 203.371094 200.632812 C 204.46875 201.269531 205.875 200.894531 206.511719 199.792969 "/>
<path style=" stroke:none;fill-rule:nonzero;fill:rgb(33.329773%,64.309692%,32.159424%);fill-opacity:1;" d="M 199.632812 211.09375 C 199.632812 209.824219 198.601562 208.792969 197.332031 208.792969 C 196.0625 208.792969 195.03125 209.824219 195.03125 211.09375 C 195.03125 212.363281 196.0625 213.394531 197.332031 213.394531 C 198.601562 213.394531 199.632812 212.363281 199.632812 211.09375 "/>
<path style=" stroke:none;fill-rule:nonzero;fill:rgb(33.329773%,64.309692%,32.159424%);fill-opacity:1;" d="M 198.480469 208.21875 L 196.179688 208.21875 L 196.179688 205.34375 L 198.480469 205.34375 L 198.480469 208.21875 "/>
<path style=" stroke:none;fill-rule:nonzero;fill:rgb(40.779114%,73.728943%,25.099182%);fill-opacity:1;" d="M 199.632812 204.765625 C 199.632812 203.496094 198.601562 202.46875 197.332031 202.46875 C 196.0625 202.46875 195.03125 203.496094 195.03125 204.765625 C 195.03125 206.039062 196.0625 207.066406 197.332031 207.066406 C 198.601562 207.066406 199.632812 206.039062 199.632812 204.765625 "/>
<path style=" stroke:none;fill-rule:nonzero;fill:rgb(33.329773%,64.309692%,32.159424%);fill-opacity:1;" d="M 195.414062 208.660156 L 194.265625 210.652344 L 191.777344 209.214844 L 192.925781 207.222656 L 195.414062 208.660156 "/>
<path style=" stroke:none;fill-rule:nonzero;fill:rgb(40.779114%,73.728943%,25.099182%);fill-opacity:1;" d="M 193.003906 205.9375 C 191.902344 205.304688 190.496094 205.679688 189.859375 206.78125 C 189.226562 207.878906 189.601562 209.289062 190.703125 209.921875 C 191.800781 210.558594 193.210938 210.179688 193.84375 209.082031 C 194.480469 207.980469 194.101562 206.574219 193.003906 205.9375 "/>
<path style=" stroke:none;fill-rule:nonzero;fill:rgb(33.329773%,64.309692%,32.159424%);fill-opacity:1;" d="M 194.265625 211.535156 L 195.414062 213.527344 L 192.925781 214.964844 L 191.777344 212.972656 L 194.265625 211.535156 "/>
<path style=" stroke:none;fill-rule:nonzero;fill:rgb(40.779114%,73.728943%,25.099182%);fill-opacity:1;" d="M 190.703125 212.265625 C 189.601562 212.898438 189.226562 214.304688 189.859375 215.40625 C 190.496094 216.507812 191.902344 216.882812 193.003906 216.25 C 194.101562 215.613281 194.480469 214.207031 193.84375 213.105469 C 193.210938 212.007812 191.800781 211.628906 190.703125 212.265625 "/>
<path style=" stroke:none;fill-rule:nonzero;fill:rgb(33.329773%,64.309692%,32.159424%);fill-opacity:1;" d="M 196.179688 213.96875 L 198.480469 213.96875 L 198.480469 216.84375 L 196.179688 216.84375 L 196.179688 213.96875 "/>
<path style=" stroke:none;fill-rule:nonzero;fill:rgb(40.779114%,73.728943%,25.099182%);fill-opacity:1;" d="M 195.03125 217.417969 C 195.03125 218.691406 196.0625 219.71875 197.332031 219.71875 C 198.601562 219.71875 199.632812 218.691406 199.632812 217.417969 C 199.632812 216.148438 198.601562 215.117188 197.332031 215.117188 C 196.0625 215.117188 195.03125 216.148438 195.03125 217.417969 "/>
<path style=" stroke:none;fill-rule:nonzero;fill:rgb(33.329773%,64.309692%,32.159424%);fill-opacity:1;" d="M 199.246094 213.527344 L 200.394531 211.535156 L 202.886719 212.972656 L 201.738281 214.964844 L 199.246094 213.527344 "/>
<path style=" stroke:none;fill-rule:nonzero;fill:rgb(40.779114%,73.728943%,25.099182%);fill-opacity:1;" d="M 201.660156 216.25 C 202.757812 216.882812 204.167969 216.507812 204.800781 215.40625 C 205.4375 214.304688 205.058594 212.898438 203.960938 212.265625 C 202.859375 211.628906 201.453125 212.007812 200.816406 213.105469 C 200.183594 214.207031 200.558594 215.613281 201.660156 216.25 "/>
<path style=" stroke:none;fill-rule:nonzero;fill:rgb(33.329773%,64.309692%,32.159424%);fill-opacity:1;" d="M 200.394531 210.652344 L 199.246094 208.660156 L 201.738281 207.222656 L 202.886719 209.214844 L 200.394531 210.652344 "/>
<path style=" stroke:none;fill-rule:nonzero;fill:rgb(40.779114%,73.728943%,25.099182%);fill-opacity:1;" d="M 203.960938 209.921875 C 205.058594 209.289062 205.4375 207.878906 204.800781 206.78125 C 204.167969 205.679688 202.757812 205.304688 201.660156 205.9375 C 200.558594 206.574219 200.183594 207.980469 200.816406 209.082031 C 201.453125 210.179688 202.859375 210.558594 203.960938 209.921875 "/>
<use xlink:href="#surface5" transform="matrix(1,0,0,1,86,86)" mask="url(#mask0)"/>
</g>
</svg>
