<?xml version="1.0" encoding="UTF-8"?>
<svg xmlns="http://www.w3.org/2000/svg" xmlns:xlink="http://www.w3.org/1999/xlink" width="375pt" height="374.999991pt" viewBox="0 0 375 374.999991" version="1.2">
<defs>
<clipPath id="clip1">
  <path d="M 51.347656 37.5 L 337.847656 37.5 L 337.847656 324 L 51.347656 324 Z M 51.347656 37.5 "/>
</clipPath>
</defs>
<g id="surface1">
<rect x="0" y="0" width="375" height="374.999991" style="fill:rgb(100%,100%,100%);fill-opacity:1;stroke:none;"/>
<rect x="0" y="0" width="375" height="374.999991" style="fill:rgb(100%,100%,100%);fill-opacity:1;stroke:none;"/>
<rect x="0" y="0" width="375" height="374.999991" style="fill:rgb(100%,100%,100%);fill-opacity:1;stroke:none;"/>
<path style=" stroke:none;fill-rule:nonzero;fill:rgb(87.449646%,94.119263%,99.609375%);fill-opacity:1;" d="M 194.777344 320.578125 C 117.769531 320.578125 55.125 257.929688 55.125 180.925781 C 55.125 103.921875 117.769531 41.273438 194.777344 41.273438 C 271.78125 41.273438 334.425781 103.921875 334.425781 180.925781 C 334.425781 257.929688 271.78125 320.578125 194.777344 320.578125 Z M 194.777344 320.578125 "/>
<g clip-path="url(#clip1)" clip-rule="nonzero">
<path style=" stroke:none;fill-rule:nonzero;fill:rgb(27.839661%,53.329468%,78.039551%);fill-opacity:1;" d="M 194.777344 45.046875 C 269.695312 45.046875 330.652344 106.003906 330.652344 180.925781 C 330.652344 255.847656 269.695312 316.804688 194.777344 316.804688 C 119.855469 316.804688 58.898438 255.847656 58.898438 180.925781 C 58.898438 106.003906 119.855469 45.046875 194.777344 45.046875 M 194.777344 37.5 C 115.566406 37.5 51.347656 101.71875 51.347656 180.925781 C 51.347656 260.136719 115.566406 324.351562 194.777344 324.351562 C 273.984375 324.351562 338.203125 260.136719 338.203125 180.925781 C 338.203125 101.71875 273.984375 37.5 194.777344 37.5 Z M 194.777344 37.5 "/>
</g>
<path style=" stroke:none;fill-rule:nonzero;fill:rgb(59.609985%,79.998779%,99.21875%);fill-opacity:1;" d="M 194.777344 60.144531 C 192.796875 60.144531 190.824219 60.195312 188.847656 60.292969 C 186.875 60.390625 184.902344 60.535156 182.9375 60.726562 C 180.96875 60.921875 179.007812 61.164062 177.054688 61.453125 C 175.097656 61.742188 173.152344 62.082031 171.210938 62.46875 C 169.273438 62.851562 167.347656 63.285156 165.429688 63.765625 C 163.511719 64.246094 161.605469 64.773438 159.714844 65.347656 C 157.824219 65.921875 155.945312 66.539062 154.085938 67.207031 C 152.226562 67.871094 150.382812 68.582031 148.554688 69.339844 C 146.730469 70.097656 144.921875 70.898438 143.136719 71.742188 C 141.347656 72.585938 139.582031 73.476562 137.839844 74.40625 C 136.097656 75.339844 134.378906 76.3125 132.683594 77.328125 C 130.988281 78.347656 129.316406 79.402344 127.671875 80.5 C 126.03125 81.597656 124.414062 82.738281 122.828125 83.914062 C 121.238281 85.09375 119.679688 86.308594 118.152344 87.5625 C 116.625 88.816406 115.128906 90.105469 113.664062 91.433594 C 112.199219 92.761719 110.769531 94.125 109.371094 95.523438 C 107.972656 96.917969 106.609375 98.351562 105.285156 99.816406 C 103.957031 101.28125 102.664062 102.777344 101.410156 104.304688 C 100.15625 105.832031 98.941406 107.390625 97.765625 108.976562 C 96.585938 110.566406 95.449219 112.179688 94.351562 113.824219 C 93.253906 115.46875 92.195312 117.136719 91.179688 118.832031 C 90.164062 120.527344 89.1875 122.246094 88.257812 123.992188 C 87.324219 125.734375 86.4375 127.5 85.589844 129.285156 C 84.746094 131.074219 83.945312 132.878906 83.1875 134.707031 C 82.433594 136.53125 81.722656 138.375 81.054688 140.238281 C 80.390625 142.097656 79.769531 143.972656 79.195312 145.867188 C 78.621094 147.757812 78.09375 149.660156 77.617188 151.578125 C 77.136719 153.496094 76.703125 155.425781 76.316406 157.363281 C 75.929688 159.300781 75.59375 161.25 75.304688 163.203125 C 75.011719 165.160156 74.769531 167.121094 74.578125 169.085938 C 74.382812 171.054688 74.238281 173.023438 74.140625 175 C 74.042969 176.972656 73.996094 178.949219 73.996094 180.925781 C 73.996094 182.902344 74.042969 184.878906 74.140625 186.851562 C 74.238281 188.828125 74.382812 190.796875 74.578125 192.765625 C 74.769531 194.730469 75.011719 196.691406 75.304688 198.648438 C 75.59375 200.601562 75.929688 202.550781 76.316406 204.488281 C 76.703125 206.425781 77.136719 208.355469 77.617188 210.273438 C 78.09375 212.191406 78.621094 214.09375 79.195312 215.988281 C 79.769531 217.878906 80.390625 219.753906 81.054688 221.617188 C 81.722656 223.476562 82.433594 225.320312 83.1875 227.144531 C 83.945312 228.972656 84.746094 230.777344 85.589844 232.566406 C 86.4375 234.351562 87.324219 236.117188 88.257812 237.859375 C 89.1875 239.605469 90.164062 241.324219 91.179688 243.019531 C 92.195312 244.714844 93.253906 246.382812 94.351562 248.027344 C 95.449219 249.671875 96.585938 251.285156 97.765625 252.875 C 98.941406 254.460938 100.15625 256.019531 101.410156 257.546875 C 102.664062 259.074219 103.957031 260.570312 105.285156 262.035156 C 106.609375 263.5 107.972656 264.933594 109.371094 266.332031 C 110.769531 267.726562 112.199219 269.089844 113.664062 270.417969 C 115.128906 271.746094 116.625 273.035156 118.152344 274.289062 C 119.679688 275.542969 121.238281 276.757812 122.828125 277.9375 C 124.414062 279.113281 126.03125 280.253906 127.671875 281.351562 C 129.316406 282.449219 130.988281 283.507812 132.683594 284.523438 C 134.378906 285.539062 136.097656 286.511719 137.839844 287.445312 C 139.582031 288.375 141.347656 289.265625 143.136719 290.109375 C 144.921875 290.953125 146.730469 291.753906 148.554688 292.511719 C 150.382812 293.269531 152.226562 293.980469 154.085938 294.644531 C 155.945312 295.3125 157.824219 295.929688 159.714844 296.503906 C 161.605469 297.078125 163.511719 297.605469 165.429688 298.085938 C 167.347656 298.566406 169.273438 299 171.210938 299.386719 C 173.152344 299.769531 175.097656 300.109375 177.054688 300.398438 C 179.007812 300.6875 180.96875 300.929688 182.9375 301.125 C 184.902344 301.316406 186.875 301.464844 188.847656 301.558594 C 190.824219 301.65625 192.796875 301.707031 194.777344 301.707031 C 196.753906 301.707031 198.726562 301.65625 200.703125 301.558594 C 202.675781 301.464844 204.648438 301.316406 206.613281 301.125 C 208.582031 300.929688 210.542969 300.6875 212.496094 300.398438 C 214.453125 300.109375 216.398438 299.769531 218.339844 299.386719 C 220.277344 299 222.207031 298.566406 224.121094 298.085938 C 226.039062 297.605469 227.945312 297.078125 229.835938 296.503906 C 231.726562 295.929688 233.605469 295.3125 235.464844 294.644531 C 237.324219 293.980469 239.167969 293.269531 240.996094 292.511719 C 242.820312 291.753906 244.628906 290.953125 246.414062 290.109375 C 248.203125 289.265625 249.96875 288.375 251.710938 287.445312 C 253.453125 286.511719 255.171875 285.539062 256.867188 284.523438 C 258.5625 283.507812 260.234375 282.449219 261.878906 281.351562 C 263.519531 280.253906 265.136719 279.113281 266.722656 277.9375 C 268.3125 276.757812 269.871094 275.542969 271.398438 274.289062 C 272.925781 273.035156 274.421875 271.746094 275.886719 270.417969 C 277.351562 269.089844 278.78125 267.726562 280.179688 266.332031 C 281.578125 264.933594 282.941406 263.5 284.265625 262.035156 C 285.59375 260.570312 286.886719 259.074219 288.140625 257.546875 C 289.394531 256.019531 290.609375 254.460938 291.785156 252.875 C 292.964844 251.285156 294.101562 249.671875 295.199219 248.027344 C 296.296875 246.382812 297.355469 244.714844 298.371094 243.019531 C 299.386719 241.324219 300.363281 239.605469 301.292969 237.859375 C 302.226562 236.117188 303.113281 234.351562 303.960938 232.566406 C 304.804688 230.777344 305.605469 228.972656 306.363281 227.144531 C 307.117188 225.320312 307.828125 223.476562 308.496094 221.617188 C 309.160156 219.753906 309.78125 217.878906 310.355469 215.988281 C 310.929688 214.09375 311.457031 212.191406 311.933594 210.273438 C 312.414062 208.355469 312.847656 206.425781 313.234375 204.488281 C 313.621094 202.550781 313.957031 200.601562 314.246094 198.648438 C 314.539062 196.691406 314.78125 194.730469 314.972656 192.765625 C 315.167969 190.796875 315.3125 188.828125 315.410156 186.851562 C 315.507812 184.878906 315.554688 182.902344 315.554688 180.925781 C 315.554688 178.949219 315.507812 176.972656 315.410156 175 C 315.3125 173.023438 315.167969 171.054688 314.972656 169.085938 C 314.78125 167.121094 314.539062 165.160156 314.246094 163.203125 C 313.957031 161.25 313.621094 159.300781 313.234375 157.363281 C 312.847656 155.425781 312.414062 153.496094 311.9375 151.578125 C 311.457031 149.660156 310.929688 147.757812 310.355469 145.867188 C 309.78125 143.972656 309.160156 142.097656 308.496094 140.238281 C 307.828125 138.375 307.117188 136.53125 306.363281 134.707031 C 305.605469 132.878906 304.804688 131.074219 303.957031 129.285156 C 303.113281 127.5 302.226562 125.734375 301.292969 123.992188 C 300.363281 122.246094 299.386719 120.527344 298.371094 118.832031 C 297.355469 117.136719 296.296875 115.46875 295.199219 113.824219 C 294.101562 112.179688 292.964844 110.566406 291.785156 108.976562 C 290.609375 107.390625 289.394531 105.832031 288.140625 104.304688 C 286.886719 102.777344 285.59375 101.28125 284.265625 99.816406 C 282.941406 98.351562 281.578125 96.917969 280.179688 95.523438 C 278.78125 94.125 277.351562 92.761719 275.886719 91.433594 C 274.421875 90.105469 272.925781 88.816406 271.398438 87.5625 C 269.871094 86.308594 268.3125 85.09375 266.722656 83.914062 C 265.136719 82.738281 263.519531 81.597656 261.878906 80.5 C 260.234375 79.402344 258.5625 78.347656 256.867188 77.328125 C 255.171875 76.3125 253.453125 75.339844 251.710938 74.40625 C 249.96875 73.476562 248.203125 72.585938 246.414062 71.742188 C 244.628906 70.898438 242.820312 70.097656 240.996094 69.339844 C 239.167969 68.582031 237.324219 67.871094 235.464844 67.207031 C 233.605469 66.539062 231.726562 65.921875 229.835938 65.347656 C 227.945312 64.773438 226.039062 64.246094 224.121094 63.765625 C 222.207031 63.285156 220.277344 62.851562 218.339844 62.46875 C 216.398438 62.082031 214.453125 61.742188 212.496094 61.453125 C 210.542969 61.164062 208.582031 60.921875 206.613281 60.726562 C 204.648438 60.535156 202.675781 60.390625 200.703125 60.292969 C 198.726562 60.195312 196.753906 60.144531 194.777344 60.144531 Z M 194.777344 60.144531 "/>
<path style=" stroke:none;fill-rule:nonzero;fill:rgb(100%,100%,100%);fill-opacity:1;" d="M 256.246094 256.414062 L 227.566406 256.414062 L 203.941406 215.980469 C 201.804688 212.269531 199.726562 209.082031 197.695312 206.457031 C 195.667969 203.820312 193.597656 201.664062 191.507812 199.980469 C 189.414062 198.296875 187.121094 197.066406 184.644531 196.296875 C 182.167969 195.523438 179.382812 195.140625 176.289062 195.140625 L 164.582031 195.140625 L 164.582031 256.414062 L 141.933594 256.414062 L 141.933594 105.4375 L 190.632812 105.4375 C 197.574219 105.4375 203.96875 106.285156 209.820312 107.96875 C 215.671875 109.652344 220.757812 112.203125 225.089844 115.597656 C 229.425781 118.996094 232.804688 123.253906 235.25 128.339844 C 237.699219 133.429688 238.914062 139.378906 238.914062 146.1875 C 238.914062 151.523438 238.136719 156.421875 236.585938 160.875 C 235.039062 165.332031 232.84375 169.300781 229.984375 172.773438 C 227.121094 176.246094 223.6875 179.21875 219.664062 181.671875 C 215.640625 184.125 211.117188 186.019531 206.097656 187.359375 L 206.097656 187.78125 C 208.777344 189.328125 211.125 191.027344 213.109375 192.882812 C 215.097656 194.738281 217 196.648438 218.789062 198.621094 C 220.578125 200.589844 222.351562 202.808594 224.101562 205.308594 C 225.855469 207.808594 227.792969 210.699219 229.929688 213.996094 Z M 164.582031 125.761719 L 164.582031 174.820312 L 186.8125 174.820312 C 190.601562 174.820312 194.089844 174.222656 197.28125 173.03125 C 200.480469 171.835938 203.246094 170.117188 205.585938 167.875 C 207.925781 165.632812 209.746094 162.890625 211.050781 159.660156 C 212.355469 156.429688 213.011719 152.816406 213.011719 148.8125 C 213.011719 141.582031 210.769531 135.933594 206.308594 131.867188 C 201.847656 127.796875 195.402344 125.761719 187.015625 125.761719 Z M 164.582031 125.761719 "/>
</g>
</svg>
