<?xml version="1.0" encoding="UTF-8"?>
<svg xmlns="http://www.w3.org/2000/svg" xmlns:xlink="http://www.w3.org/1999/xlink" width="375pt" height="374.999991pt" viewBox="0 0 375 374.999991" version="1.2">
<defs>
<clipPath id="clip1">
  <path d="M 48.792969 90.152344 L 337.542969 90.152344 L 337.542969 292.535156 L 48.792969 292.535156 Z M 48.792969 90.152344 "/>
</clipPath>
</defs>
<g id="surface1">
<g clip-path="url(#clip1)" clip-rule="nonzero">
<path style=" stroke:none;fill-rule:nonzero;fill:rgb(100%,0%,0%);fill-opacity:1;" d="M 331.285156 121.714844 C 330.875 120.191406 330.363281 118.699219 329.753906 117.246094 C 329.148438 115.789062 328.445312 114.378906 327.65625 113.011719 C 326.863281 111.648438 325.984375 110.339844 325.023438 109.089844 C 324.058594 107.839844 323.019531 106.65625 321.902344 105.539062 C 320.785156 104.425781 319.601562 103.386719 318.347656 102.425781 C 317.09375 101.464844 315.785156 100.585938 314.417969 99.796875 C 313.050781 99.003906 311.640625 98.308594 310.179688 97.699219 C 308.722656 97.09375 307.230469 96.582031 305.707031 96.167969 C 283.277344 90.054688 193.011719 90.054688 193.011719 90.054688 C 193.011719 90.054688 102.742188 90.234375 80.308594 96.351562 C 78.785156 96.761719 77.292969 97.273438 75.835938 97.878906 C 74.375 98.488281 72.964844 99.1875 71.597656 99.976562 C 70.230469 100.769531 68.917969 101.644531 67.667969 102.605469 C 66.414062 103.566406 65.230469 104.605469 64.113281 105.71875 C 62.996094 106.835938 61.957031 108.019531 60.992188 109.269531 C 60.03125 110.519531 59.152344 111.828125 58.359375 113.195312 C 57.566406 114.558594 56.867188 115.96875 56.261719 117.425781 C 55.652344 118.882812 55.140625 120.371094 54.726562 121.894531 C 48.792969 144.292969 48.792969 191.121094 48.792969 191.121094 C 48.792969 191.121094 48.792969 237.949219 54.914062 260.527344 C 55.328125 262.050781 55.835938 263.539062 56.445312 264.996094 C 57.054688 266.449219 57.753906 267.859375 58.546875 269.226562 C 59.335938 270.589844 60.214844 271.898438 61.175781 273.148438 C 62.140625 274.402344 63.179688 275.582031 64.296875 276.699219 C 65.414062 277.816406 66.597656 278.851562 67.851562 279.816406 C 69.105469 280.777344 70.414062 281.652344 71.78125 282.441406 C 73.148438 283.234375 74.5625 283.933594 76.019531 284.539062 C 77.476562 285.148438 78.96875 285.65625 80.492188 286.070312 C 102.921875 292.183594 193.191406 292.183594 193.191406 292.183594 C 193.191406 292.183594 283.464844 292.183594 305.894531 286.074219 C 307.421875 285.660156 308.910156 285.152344 310.371094 284.542969 C 311.828125 283.9375 313.242188 283.238281 314.609375 282.449219 C 315.976562 281.65625 317.285156 280.78125 318.539062 279.820312 C 319.789062 278.859375 320.976562 277.820312 322.09375 276.703125 C 323.210938 275.589844 324.25 274.40625 325.210938 273.15625 C 326.175781 271.902344 327.050781 270.597656 327.84375 269.230469 C 328.636719 267.867188 329.335938 266.457031 329.945312 265 C 330.550781 263.542969 331.0625 262.054688 331.476562 260.53125 C 337.589844 238.132812 337.589844 191.121094 337.589844 191.121094 C 337.589844 191.121094 337.410156 144.292969 331.285156 121.714844 Z M 331.285156 121.714844 "/>
</g>
<path style=" stroke:none;fill-rule:nonzero;fill:rgb(100%,100%,100%);fill-opacity:1;" d="M 164.277344 234.429688 L 239.160156 191.121094 L 164.273438 147.808594 Z M 164.277344 234.429688 "/>
</g>
</svg>
