<?xml version="1.0" encoding="UTF-8"?>
<svg xmlns="http://www.w3.org/2000/svg" xmlns:xlink="http://www.w3.org/1999/xlink" width="375pt" height="374.999991pt" viewBox="0 0 375 374.999991" version="1.2">
<defs>
<clipPath id="clip1">
  <path d="M 4.6875 13 L 370.6875 13 L 370.6875 371 L 4.6875 371 Z M 4.6875 13 "/>
</clipPath>
</defs>
<g id="surface1">
<g clip-path="url(#clip1)" clip-rule="nonzero">
<path style=" stroke:none;fill-rule:nonzero;fill:rgb(0%,0%,0%);fill-opacity:1;" d="M 187.875 13.601562 C 86.703125 13.601562 4.6875 95.507812 4.6875 196.460938 C 4.6875 277.265625 57.199219 345.851562 129.96875 370.070312 C 139.105469 371.722656 145.601562 362.363281 145.601562 355.316406 C 145.601562 351.023438 145.710938 345.851562 145.601562 330.65625 C 94.628906 341.667969 78.667969 306 78.667969 306 C 70.300781 284.859375 60.171875 278.804688 60.171875 278.804688 C 43.550781 267.46875 61.382812 267.796875 61.382812 267.796875 C 79.769531 269.007812 89.234375 284.859375 89.234375 284.859375 C 103.328125 309.519531 135.144531 307.097656 145.601562 302.476562 C 145.601562 291.246094 146.8125 283.101562 149.894531 277.925781 C 92.316406 267.796875 60.941406 234.550781 61.054688 188.535156 C 61.164062 161.339844 70.519531 140.203125 85.710938 124.570312 C 79.109375 116.207031 74.59375 87.582031 88.136719 69.96875 C 122.152344 69.96875 142.410156 94.519531 142.410156 94.519531 C 142.410156 94.519531 158.371094 87.582031 187.765625 87.582031 C 217.269531 87.582031 233.121094 94.1875 233.121094 94.1875 C 233.121094 94.1875 253.488281 69.96875 287.503906 69.96875 C 301.046875 87.582031 296.53125 116.207031 291.25 124.019531 C 305.78125 139.324219 314.699219 160.460938 314.699219 188.535156 C 314.699219 234.550781 283.433594 267.796875 225.964844 277.816406 C 229.597656 283.320312 230.148438 291.027344 230.148438 302.476562 C 230.148438 326.914062 230.148438 349.261719 230.148438 355.316406 C 230.148438 362.363281 236.535156 371.832031 245.890625 370.070312 C 318.660156 345.738281 371.0625 277.265625 371.0625 196.460938 C 371.0625 95.507812 289.046875 13.601562 187.875 13.601562 Z M 187.875 13.601562 "/>
</g>
</g>
</svg>
